<svg id="Layer_1" data-name="Layer 1" xmlns="http://www.w3.org/2000/svg" width="64" height="64" viewBox="0 0 64 64"><defs><style>.cls-1{fill:#2efdb3;}</style></defs><title>ardillita</title><path class="cls-1" d="M64,35.9q-9.8,11.49-19.58,23C43,60.61,41.49,62.3,40,64H13.42c-.21-.21-.43-.4-.62-.62L.57,49.12c-.7-.82-.74-1.14-.21-2.06L18.42,15.68c.34-.59.33-.61-.32-.62H1.49c-.8,0-1.3-.29-1.44-.84a1.25,1.25,0,0,1,.71-1.44c1-.61,1.87-1.26,2.8-1.88Q11.39,5.65,19.23.41c.89-.59,1.42-.55,2,.17,3.43,4.08,6.84,8.17,10.28,12.23a1.74,1.74,0,0,1,.34,1.94c-1.74,4.66-3.44,9.33-5.15,14-.32.87-.63,1.75-1,2.71l.55-.19L47.72,23l4.07-1.58a1.11,1.11,0,0,1,1.27.24,1.07,1.07,0,0,1,.24,1.26l-.18.47L47.63,36.7c-.07.18-.27.38-.11.57s.4,0,.59,0c4.67-.95,9.33-1.89,14-2.86.75-.15,1.41-.2,1.9.5ZM22.05,15.05a1,1,0,0,0-1,.58q-4.47,7.8-9,15.58Q8,38.38,3.84,45.55c-.07.12-.15.25-.21.37s-.16.23-.07.35.23,0,.35,0l4.16-.85,10.26-2.08a1.08,1.08,0,0,0,.92-.78Q24.1,29.3,29,16c.05-.14.09-.28.14-.42.19-.41.05-.56-.39-.56H25.3C24.21,15.06,23.13,15.08,22.05,15.05ZM5.37,48.3l0,.13,3.5,1.38c4.28,1.66,8.57,3.31,12.84,5a2,2,0,0,0,1.82-.11q15.5-8.12,31-16.2l.39-.2,0-.1Zm20.19,7.88a2.24,2.24,0,0,0,.9.47c4.05,1.58,8.1,3.14,12.15,4.73a.67.67,0,0,0,.91-.22Q48.76,50.27,58,39.39a1,1,0,0,0,.07-.19ZM38.33,29.05c-4.32,1.67-8.65,3.35-13,5a1.43,1.43,0,0,0-.92.92c-.83,2.33-1.69,4.65-2.54,7-.06.19-.24.39-.07.58s.35,0,.53,0l6.41-1.29a1.54,1.54,0,0,0,.72-.36L46.16,26.28a1,1,0,0,1,.28-.14L46.3,26ZM28.47,12.73,26.7,10.6c-2.1-2.5-4.21-5-6.3-7.51-.27-.33-.47-.42-.87-.16Q12.45,7.7,5.33,12.46a3.67,3.67,0,0,0-.34.27ZM9.76,56.36c1.44,1.68,2.88,3.35,4.31,5a1.07,1.07,0,0,0,.9.44h18.1l.32,0-28.17-11L5.14,51ZM33.87,40.05A2,2,0,0,0,35,40l9.11-1.85a.88.88,0,0,0,.76-.54c1.44-3.52,2.9-7,4.35-10.56a3.36,3.36,0,0,0,0-.38Z"/></svg>